<?xml version="1.0" encoding="utf-8"?>
<!-- Generator: Adobe Illustrator 27.7.0, SVG Export Plug-In . SVG Version: 6.00 Build 0)  -->
<svg version="1.1" id="Layer_1" xmlns="http://www.w3.org/2000/svg" xmlns:xlink="http://www.w3.org/1999/xlink" x="0px" y="0px"
	 viewBox="0 0 2400 1256" style="enable-background:new 0 0 2400 1256;" xml:space="preserve">
<style type="text/css">
	.st0{fill:#E4E4DD;}
	.st1{fill:none;stroke:#000000;stroke-miterlimit:10;}
	.st2{fill:none;}
</style>
<rect class="st0" width="2400" height="1256"/>
<path class="st1" d="M871.5,0v115.8L1192,283.4v23.9L871.5,148.7v293c0,0,321.9,101.1,320.6,103.1c-1.3,2,0,21.9,0,21.9l-317.2-90.5
	v294l317.2,39.9v20.6l-232.1-23.9v286.7l232.1-19.3v19.3l-382.4,43.9V1256H709.2v-136.6l-149,10.6v-6.7l27.3-2.7V766.9l-459.6-49.2
	c0,0,0.7,8,0,8S0,711.7,0,711.7L0,0h52.8v175.6L497,320V0h20v324.6L844.9,433V127.1L596,0h62l184.9,97.8V0"/>
<polygon class="st1" points="844.2,764.9 844.2,460.3 517.6,359.2 517.6,727 "/>
<polygon class="st1" points="497,359.2 52.8,223.5 52.8,669.8 497,725 "/>
<path class="st1" d="M624.1,775.5c0,0,170.9,15.3,170.9,18.6c0,3.3,0,309.9,0,309.9l-170.9,14V775.5z"/>
<polygon class="st1" points="801,794.2 941.3,808.8 941.3,1092.1 801,1104.1 "/>
<path class="st1" d="M1192,830.7l-33.3,12l-198.9-12l198.9,12v219.5c0,0-6,2-8,4.7l-190.9,8.6"/>
<polyline class="st1" points="1158.8,1062.2 1192,1074.2 1192,987.7 1158.8,987.7 "/>
<polyline class="st1" points="1189.1,809.8 1189.1,723.9 1104.5,708.1 "/>
<line class="st1" x1="1104.5" y1="799.1" x2="1104.5" y2="541.7"/>
<polyline class="st1" points="1192,566.7 1134.2,630.9 1104.5,626.2 "/>
<line class="st1" x1="1134.2" y1="630.9" x2="1134.2" y2="802.8"/>
<polyline class="st1" points="1122.9,801.4 1122.9,639.2 1104.5,636.9 "/>
<line class="st1" x1="1189.1" y1="723.9" x2="1122.9" y2="769.6"/>
<polyline class="st1" points="1192,544.8 1192,459.4 1104.5,425.7 "/>
<line class="st1" x1="1104.5" y1="264" x2="1104.5" y2="514.9"/>
<polyline class="st1" points="1136.4,525.8 1136.4,406.6 1104.5,400 "/>
<line class="st1" x1="1136.4" y1="406.6" x2="1192" y2="307.3"/>
<polyline class="st1" points="1122.9,521.4 1122.9,414.6 1104.5,412 "/>
<polyline class="st1" points="1192,283.4 1192,197.8 1104.5,145.5 "/>
<line class="st1" x1="1104.5" y1="0" x2="1104.5" y2="237.6"/>
<polyline class="st1" points="1136.4,254.3 1135.1,185.4 1192,40.4 1134,0 1164.2,0 1192,20.5 1192,40.4 "/>
<line class="st1" x1="1104.5" y1="173.9" x2="1135.1" y2="185.4"/>
<polyline class="st1" points="1104.5,185.4 1122.9,192 1122.9,247.2 "/>
<line class="st1" x1="1156.9" y1="265" x2="1192" y2="197.8"/>
<line class="st1" x1="1192" y1="459.4" x2="1141.7" y2="527.5"/>
<line class="st1" x1="844.2" y1="325.3" x2="517.6" y2="197.8"/>
<line class="st1" x1="844.2" y1="658.5" x2="517.6" y2="598.8"/>
<polyline class="st1" points="793,759 793,510.4 517.6,466.7 "/>
<line class="st1" x1="793" y1="510.4" x2="844.2" y2="460.3"/>
<polyline class="st1" points="779.1,757.3 779.1,525.8 650.7,503.3 650.7,742.4 "/>
<polyline class="st1" points="639,741.1 639,503.3 639,493.5 517.6,474.3 "/>
<line class="st1" x1="517.6" y1="485.3" x2="639" y2="503.3"/>
<polygon class="st1" points="539.4,1082.8 513.7,1084.6 528.7,1093.9 0,1230.5 0,1246.4 561.1,1095.2 "/>
<polyline class="st1" points="561.1,1095.2 561.1,1148.4 286.6,1256 "/>
<polyline class="st1" points="709.2,1119.4 413.5,1256 525.6,1256 547.4,1244.2 547.4,1256 "/>
<polyline class="st1" points="561.1,1256 561.1,1236.2 603.2,1211.4 603.2,1256 "/>
<polyline class="st1" points="624.1,1256 624.1,1191.4 613,1196.8 613,1256 "/>
<polyline class="st1" points="636.5,1256 636.5,1191.4 663.1,1175.6 663.1,1256 "/>
<polyline class="st1" points="672.4,1256 672.4,1166.6 679.9,1160.8 679.9,1256 "/>
<polyline class="st1" points="687.5,1256 687.5,1164.6 699.9,1156 699.9,1256 "/>
<line class="st1" x1="1151.7" y1="1256" x2="1151.7" y2="1098.1"/>
<polyline class="st1" points="1168.9,1232.7 1192,1251.3 1168.9,1256 1168.9,1096.1 "/>
<line class="st1" x1="1192" y1="1251.3" x2="1192" y2="1256"/>
<polyline class="st1" points="302.2,1152.4 0,1178.1 0,1168.4 341.1,1142.4 "/>
<line class="st1" x1="121.6" y1="725" x2="118.6" y2="1159.3"/>
<polyline class="st1" points="552.7,1090.4 552.7,791.9 167.4,771.6 167.4,1124 457.8,1112.2 "/>
<line class="st1" x1="587.5" y1="766.9" x2="552.7" y2="791.9"/>
<path class="st1" d="M174.9,779.4c0,0,145,5.4,144.5,6.8c-0.4,1.3,0,324.1,0,324.1l-144.5,7.8V779.4z"/>
<polygon class="st1" points="327.9,786.6 453.4,791.9 453.4,1105 327.9,1111.2 "/>
<polyline class="st1" points="127.9,725.7 155,761.4 155,1132.5 127.9,1158.6 "/>
<line class="st1" x1="127.9" y1="717.7" x2="167.4" y2="771.6"/>
<polyline class="st1" points="844.9,127.1 793,210.2 517.6,135.7 "/>
<line class="st1" x1="793" y1="210.2" x2="793" y2="415.9"/>
<polyline class="st1" points="779.1,411.3 779.1,223.5 650.7,188.9 650.7,367.2 "/>
<polyline class="st1" points="639,365 640.5,175.9 517,143.3 "/>
<line class="st2" x1="640.5" y1="188.9" x2="517" y2="157.5"/>
<line class="st1" x1="793" y1="71.4" x2="793" y2="0"/>
<line class="st1" x1="779.1" y1="64.1" x2="779.1" y2="0"/>
</svg>
